<svg xmlns="http://www.w3.org/2000/svg" viewBox="0 0 72 72" fill="none">
  <circle cx="36" cy="36" r="36" fill="#FFF" />
  <g transform="translate(10,10)">
    <path fill="#6A462F" d="M17 43V14H10v29h7z" />
    <path fill="#B1CC33" d="M27 43V14h7v29h-7z" />
    <path fill="#5C9E31" d="M10 43c1.857 0 3.572-.715 5-2v-27c-1.428-1.285-3.143-2-5-2s-3.572.715-5 2v27c1.428 1.285 3.143 2 5 2z" />
    <path fill="#92D3F5" d="M27 43c1.857 0 3.572-.715 5-2v-27c-1.428-1.285-3.143-2-5-2s-3.572.715-5 2v27c1.428 1.285 3.143 2 5 2z" />
    <path fill="#FCEA2B" d="M17 43c1.857 0 3.572-.715 5-2v-27c-1.428-1.285-3.143-2-5-2s-3.572.715-5 2v27c1.428 1.285 3.143 2 5 2z" />
    <path fill="#F4AA41" d="M10 15c-2.5-.714-5 0-7 2v26c2-2 4.5-2.714 7-2V15z" />
  </g>
</svg>
